<?xml version="1.0" encoding="UTF-8"?>
<svg id="Capa_1" data-name="Capa 1" xmlns="http://www.w3.org/2000/svg" viewBox="0 0 842.25 525.71">
  <defs>
    <style>
      .cls-1 {
        fill: #fff;
      }
    </style>
  </defs>
  <polygon class="cls-1" points="420.43 105.95 334.88 245.53 309.42 287.65 280.97 287.4 360.98 152.92 420.26 53.75 482.28 158.28 559.62 287.29 530.93 287.71 482.86 208.57 420.43 105.95"/>
  <path class="cls-1" d="M296.76,472.31l-89.44-.03c-3.34,0-6.86-3.13-7.68-5.47-1.11-3.18-.36-6.95,2.63-9.4l81.13-66.72-79.15-.19-5.45-11.42,93.31.05c3.97,0,7.35,3.21,8.28,5.91,1.32,3.84-.09,7.2-3.3,9.84l-80.79,66.26,85.46.13-4.99,11.05Z"/>
  <path class="cls-1" d="M602.74,436.3h-50.71s-.17-11.07-.17-11.07l58.2.04c11.92,0,22.77-6.67,22.35-18.91-.38-10.86-11.1-16.43-23.06-16.44l-57.47-.04v-10.95s60.63.1,60.63.1c7.02.01,14.42,2.48,20.35,6.19,13.49,8.44,15.54,27.35,5.46,39.19-5.54,6.51-12.71,9.43-21.1,11.37l28.98,36.31-14.85-.03-28.61-35.77Z"/>
  <path class="cls-1" d="M775.26,397.68l-45.56,74.22-14.26.24,19.59-32.16,36.79-59.37,3.24-1.95c.88-.53,3.26,1.15,3.85,2.13l55.21,91.14-13.65.36-45.21-74.62Z"/>
  <path class="cls-1" d="M115.3,472.5l-45.53-74.74-45.65,74.46-13.74-.29,55.6-91.14c.59-.96,2.21-2.16,3.1-2.33,1.07-.2,3.47.97,4.14,2.08l55.53,91.31-13.45.65Z"/>
  <polygon class="cls-1" points="433.35 471.86 421.01 472.2 420.94 390.49 373.27 390.54 378.89 379.05 480.08 379.07 480.18 390.56 433.29 390.54 433.35 471.86"/>
  <path class="cls-1" d="M420.49,255.66c-5.54-21.43-10.93-34.39-33.33-38.1,24.58-6.82,27.81-16.29,33.28-39.56,5.19,22.63,9.04,33.11,32.75,39.31-21.97,4.45-27.55,17.05-32.69,38.35Z"/>
  <path class="cls-1" d="M66.93,440.24c4.05-1.56,8.24.2,9.87,4.04s.24,8.32-4.37,10.12c-3.3,1.29-7.79.03-9.74-4.36-1.4-3.16.05-8.19,4.24-9.8Z"/>
  <path class="cls-1" d="M772.98,440.1c3.93-1.41,7.99.88,9.41,4.51,1.47,3.74-.43,8.2-4.34,9.65s-8.32-.25-9.67-4.13.06-8.4,4.6-10.03Z"/>
</svg>